<svg width="15" height="15" viewBox="0 0 15 15" fill="none" xmlns="http://www.w3.org/2000/svg">
<path fill-rule="evenodd" clip-rule="evenodd" d="M15 7.5C15 3.35819 11.6418 0 7.5 0C3.35819 0 0 3.35819 0 7.5C0 11.2431 2.74226 14.346 6.32824 14.9094V9.66849H4.42343V7.5H6.32824V5.84726C6.32824 3.96776 7.44832 2.92889 9.16116 2.92889C9.9817 2.92889 10.8402 3.07548 10.8402 3.07548V4.92124H9.89416C8.96289 4.92124 8.67176 5.49922 8.67176 6.093V7.49994H10.7516L10.4194 9.66843H8.6717V14.9093C12.2577 14.3471 14.9999 11.2442 14.9999 7.49994L15 7.5Z" fill="#1977F3"/>
<path fill-rule="evenodd" clip-rule="evenodd" d="M10.4194 9.66845L10.7517 7.49996H8.67181V6.09302C8.67181 5.50028 8.96184 4.92126 9.89421 4.92126H10.8403V3.0755C10.8403 3.0755 9.98181 2.92889 9.16121 2.92889C7.44838 2.92889 6.3283 3.96675 6.3283 5.84728V7.50002H4.42348V9.66851H6.3283V14.9094C6.71008 14.9694 7.10137 15 7.50006 15C7.89874 15 8.29003 14.9684 8.67181 14.9094V9.66851H10.4195L10.4194 9.66845Z" fill="#FEFEFE"/>
</svg>
