<svg width="15" height="15" viewBox="0 0 15 15" fill="none" xmlns="http://www.w3.org/2000/svg">
<path fill-rule="evenodd" clip-rule="evenodd" d="M7.48205 0C3.35037 0 0 3.44279 0 7.68988C0 11.0875 2.14383 13.97 5.11668 14.9868C5.49061 15.0579 5.62789 14.82 5.62789 14.6169C5.62789 14.4334 5.62096 13.8277 5.61773 13.1852C3.53622 13.6503 3.09699 12.2778 3.09699 12.2778C2.75665 11.3891 2.26625 11.1527 2.26625 11.1527C1.58741 10.6754 2.31742 10.6852 2.31742 10.6852C3.06875 10.7393 3.46435 11.4778 3.46435 11.4778C4.13168 12.6532 5.21469 12.3133 5.64164 12.1169C5.7088 11.6199 5.90269 11.2805 6.11668 11.0886C4.45481 10.8942 2.70782 10.2348 2.70782 7.28824C2.70782 6.44869 3.0001 5.7627 3.47872 5.22418C3.40105 5.03036 3.14494 4.24835 3.55121 3.18914C3.55121 3.18914 4.17951 2.98246 5.6093 3.97738C6.20613 3.80699 6.84619 3.72154 7.48205 3.71861C8.1179 3.72154 8.75846 3.80699 9.3564 3.97738C10.7845 2.98246 11.4119 3.18914 11.4119 3.18914C11.8192 4.24835 11.563 5.03036 11.4852 5.22418C11.9649 5.7627 12.2553 6.44869 12.2553 7.28824C12.2553 10.2418 10.505 10.8921 8.83887 11.0825C9.10724 11.3211 9.34636 11.7892 9.34636 12.5066C9.34636 13.5355 9.33769 14.3635 9.33769 14.6169C9.33769 14.8215 9.47237 15.0613 9.85162 14.9857C12.8229 13.9678 14.9639 11.0864 14.9639 7.68988C14.9639 3.44279 11.6141 0 7.48205 0Z" fill="#1B1817"/>
<path d="M2.83384 11.0409C2.81736 11.0793 2.75888 11.0906 2.7056 11.0644C2.65133 11.0394 2.62085 10.9873 2.63844 10.9489C2.65455 10.9097 2.71316 10.8987 2.7673 10.9249C2.8217 10.9501 2.85267 11.0027 2.83384 11.0409Z" fill="#1B1817"/>
<path d="M3.13688 11.3883C3.1012 11.4224 3.03144 11.4066 2.98411 11.3528C2.93518 11.2993 2.92601 11.2275 2.96219 11.193C2.99898 11.1592 3.06663 11.1751 3.11569 11.2285C3.16464 11.2828 3.17417 11.3539 3.13688 11.3883Z" fill="#1B1817"/>
<path d="M3.43188 11.8312C3.38604 11.8639 3.31108 11.8333 3.26475 11.7649C3.21889 11.6966 3.2189 11.6145 3.26574 11.5817C3.3122 11.5488 3.38604 11.5784 3.433 11.6462C3.47872 11.7157 3.47872 11.7978 3.43188 11.8312Z" fill="#1B1817"/>
<path d="M3.83605 12.2592C3.79504 12.3056 3.70769 12.2931 3.64376 12.2297C3.57834 12.1677 3.56013 12.0797 3.60126 12.0332C3.64276 11.9867 3.73061 11.9998 3.79504 12.0626C3.85996 12.1246 3.87978 12.2131 3.83605 12.2592Z" fill="#1B1817"/>
<path d="M4.39359 12.5076C4.3755 12.5678 4.29136 12.5952 4.20661 12.5696C4.122 12.5432 4.06661 12.4727 4.08372 12.4118C4.1013 12.3511 4.18581 12.3227 4.27116 12.35C4.35567 12.3762 4.41118 12.4464 4.39359 12.5076Z" fill="#1B1817"/>
<path d="M5.00592 12.5536C5.00803 12.6171 4.93616 12.6697 4.8472 12.6708C4.75775 12.6728 4.68539 12.6216 4.6844 12.5592C4.6844 12.4951 4.75465 12.443 4.8441 12.4415C4.93307 12.4397 5.00592 12.4906 5.00592 12.5536Z" fill="#1B1817"/>
<path d="M5.57571 12.4539C5.58637 12.5158 5.52454 12.5794 5.4362 12.5963C5.34935 12.6126 5.26894 12.5745 5.25792 12.513C5.24713 12.4496 5.31007 12.386 5.39681 12.3697C5.48527 12.3538 5.56444 12.391 5.57571 12.4539Z" fill="#1B1817"/>
</svg>
