<svg width="15" height="15" viewBox="0 0 15 15" fill="none" xmlns="http://www.w3.org/2000/svg">
<path d="M8.14256 1.25049C8.84594 1.25165 9.20237 1.25538 9.51038 1.26454L9.63169 1.26851C9.77181 1.27349 9.91006 1.27974 10.0767 1.28755C10.7418 1.31828 11.1955 1.42349 11.5939 1.57818C12.0059 1.73703 12.3538 1.95161 12.7012 2.29901C13.0481 2.64641 13.2627 2.99536 13.4221 3.4063C13.5762 3.80422 13.6814 4.25839 13.7127 4.92349C13.7201 5.09016 13.7261 5.22841 13.7311 5.36856L13.735 5.48986C13.7441 5.79783 13.7483 6.15432 13.7496 6.85772L13.7501 7.32372C13.7502 7.38066 13.7502 7.43941 13.7502 7.50003L13.7501 7.67634L13.7497 8.14241C13.7486 8.84578 13.7449 9.20228 13.7357 9.51022L13.7317 9.63153C13.7267 9.77172 13.7205 9.90997 13.7127 10.0766C13.6819 10.7417 13.5762 11.1953 13.4221 11.5938C13.2632 12.0058 13.0481 12.3537 12.7012 12.7011C12.3538 13.048 12.0043 13.2625 11.5939 13.4219C11.1955 13.5761 10.7418 13.6813 10.0767 13.7125C9.91006 13.72 9.77181 13.726 9.63169 13.7309L9.51038 13.7348C9.20237 13.744 8.84594 13.7482 8.14256 13.7495L7.6765 13.75C7.61956 13.75 7.56081 13.75 7.50019 13.75H7.32387L6.85781 13.7496C6.15444 13.7485 5.79795 13.7447 5.48998 13.7355L5.36868 13.7316C5.22852 13.7266 5.09027 13.7203 4.92361 13.7125C4.25851 13.6818 3.80538 13.5761 3.40642 13.4219C2.99496 13.2631 2.64652 13.048 2.29913 12.7011C1.95174 12.3537 1.73767 12.0042 1.5783 11.5938C1.42361 11.1953 1.31892 10.7417 1.28767 10.0766C1.28025 9.90997 1.27419 9.77172 1.26929 9.63153L1.26536 9.51022C1.25621 9.20228 1.25204 8.84578 1.25069 8.14241L1.25061 6.85772C1.25177 6.15432 1.25549 5.79783 1.26466 5.48986L1.26863 5.36856C1.27361 5.22841 1.27986 5.09016 1.28767 4.92349C1.3184 4.25786 1.42361 3.80474 1.5783 3.4063C1.73715 2.99484 1.95174 2.64641 2.29913 2.29901C2.64652 1.95161 2.99549 1.73755 3.40642 1.57818C3.80486 1.42349 4.25799 1.3188 4.92361 1.28755C5.09027 1.28013 5.22852 1.27408 5.36868 1.26917L5.48998 1.26524C5.79795 1.25609 6.15444 1.25192 6.85781 1.25057L8.14256 1.25049ZM7.50019 4.37505C5.77336 4.37505 4.37517 5.77476 4.37517 7.50003C4.37517 9.22684 5.77488 10.625 7.50019 10.625C9.227 10.625 10.6252 9.22534 10.6252 7.50003C10.6252 5.77324 9.22544 4.37505 7.50019 4.37505ZM7.50019 5.62505C8.53575 5.62505 9.37519 6.46422 9.37519 7.50003C9.37519 8.53559 8.536 9.37503 7.50019 9.37503C6.46463 9.37503 5.62517 8.53591 5.62517 7.50003C5.62517 6.46447 6.46431 5.62505 7.50019 5.62505ZM10.7814 3.43755C10.3506 3.43755 10.0002 3.78749 10.0002 4.21827C10.0002 4.64905 10.3501 4.99953 10.7814 4.99953C11.2122 4.99953 11.5627 4.64959 11.5627 4.21827C11.5627 3.78749 11.2116 3.43701 10.7814 3.43755Z" fill="#124AFF"/>
</svg>
