<svg width="15" height="15" viewBox="0 0 15 15" fill="none" xmlns="http://www.w3.org/2000/svg">
<path d="M11.4601 11.4619H9.79419V8.85138C9.79419 8.22888 9.78156 7.42781 8.92606 7.42781C8.0575 7.42781 7.92481 8.10519 7.92481 8.80544V11.4619H6.25887V6.09375H7.85919V6.82544H7.88075C8.10437 6.40356 8.64812 5.95828 9.46044 5.95828C11.1484 5.95828 11.4606 7.06925 11.4606 8.51531L11.4601 11.4619ZM4.37733 5.35922C3.84108 5.35922 3.4103 4.92516 3.4103 4.39125C3.4103 3.85781 3.84155 3.42422 4.37733 3.42422C4.91171 3.42422 5.34483 3.85781 5.34483 4.39125C5.34483 4.92516 4.91124 5.35922 4.37733 5.35922ZM5.21264 11.4619H3.54202V6.09375H5.21264V11.4619ZM12.2936 1.875H2.70577C2.24686 1.875 1.87561 2.23781 1.87561 2.68547V12.3146C1.87561 12.7626 2.24686 13.125 2.70577 13.125H12.2922C12.7506 13.125 13.1256 12.7626 13.1256 12.3146V2.68547C13.1256 2.23781 12.7506 1.875 12.2922 1.875H12.2936Z" fill="#124AFF"/>
</svg>
