<svg width="18" height="15" viewBox="0 0 18 15" fill="none" xmlns="http://www.w3.org/2000/svg">
<mask id="mask0_3_25" style="mask-type:luminance" maskUnits="userSpaceOnUse" x="0" y="0" width="18" height="15">
<path d="M17.9899 0H0V15H17.9899V0Z" fill="white"/>
</mask>
<g mask="url(#mask0_3_25)">
<path d="M17.107 14.0316C17.1457 14.0321 17.1839 14.0247 17.2195 14.01C17.2551 13.9953 17.2871 13.9736 17.3138 13.9463C17.3404 13.9189 17.3611 13.8866 17.3744 13.8511C17.3877 13.8157 17.3933 13.778 17.3911 13.7403C17.3911 13.5336 17.2637 13.4349 17.0021 13.4349H16.5795V14.5169H16.7385V14.0452H16.9337L16.9382 14.051L17.2413 14.5169H17.4113L17.0852 14.0347L17.107 14.0316ZM16.9232 13.9233H16.7389V13.5576H16.9725C17.0932 13.5576 17.2308 13.5769 17.2308 13.7313C17.2308 13.909 17.0916 13.9233 16.9222 13.9233" fill="#0A66C2"/>
<path d="M12.9606 12.6757H10.7067V9.22365C10.7067 8.40048 10.6917 7.34079 9.53448 7.34079C8.36058 7.34079 8.18096 8.23767 8.18096 9.16372V12.6755H5.92707V5.57663H8.0908V6.54677H8.1211C8.33764 6.18467 8.65054 5.88679 9.02649 5.68486C9.40243 5.48292 9.82735 5.3845 10.256 5.40006C12.5404 5.40006 12.9616 6.86961 12.9616 8.7814L12.9606 12.6757ZM3.38393 4.60627C3.12524 4.60632 2.87234 4.53134 2.65722 4.39081C2.4421 4.25029 2.27443 4.05054 2.17539 3.81681C2.07635 3.58308 2.0504 3.32588 2.10082 3.07774C2.15124 2.82959 2.27577 2.60163 2.45867 2.42271C2.64155 2.24377 2.87459 2.1219 3.1283 2.0725C3.38201 2.02309 3.645 2.04838 3.88401 2.14515C4.12303 2.24193 4.32733 2.40585 4.47109 2.6162C4.61486 2.82653 4.69162 3.07384 4.69166 3.32684C4.69169 3.49483 4.65789 3.66117 4.59218 3.81638C4.52647 3.9716 4.43017 4.11263 4.30874 4.23143C4.18731 4.35025 4.04313 4.4445 3.88444 4.50881C3.72576 4.57312 3.5557 4.60624 3.38393 4.60627ZM4.51087 12.6757H2.25464V5.57663H4.51087V12.6757ZM14.0843 0.000830465H1.12206C0.827855 -0.00241663 0.544351 0.108704 0.333875 0.309773C0.123397 0.510843 0.00316338 0.785411 -0.000427246 1.07314V13.8029C0.00304049 14.0908 0.123203 14.3655 0.333674 14.5669C0.544144 14.7681 0.827709 14.8795 1.12206 14.8764H14.0843C14.3792 14.88 14.6636 14.769 14.8749 14.5677C15.0861 14.3665 15.2071 14.0914 15.2113 13.8029V1.07223C15.207 0.783922 15.0859 0.509041 14.8747 0.307977C14.6634 0.106912 14.3791 -0.00389076 14.0843 -8.83771e-05" fill="#0A66C2"/>
<path d="M16.9425 12.9529C16.6683 12.9555 16.4062 13.0641 16.2137 13.2552C16.0212 13.4462 15.9139 13.704 15.9152 13.9723C15.9166 14.2404 16.0264 14.4972 16.2208 14.6863C16.4152 14.8756 16.6782 14.9817 16.9525 14.9817C17.2268 14.9817 17.4897 14.8756 17.6841 14.6863C17.8785 14.4972 17.9884 14.2404 17.9897 13.9723C17.9911 13.704 17.8837 13.4462 17.6912 13.2552C17.4987 13.0641 17.2367 12.9555 16.9624 12.9529H16.9425ZM16.9425 14.8656C16.7626 14.8686 16.5859 14.8192 16.4348 14.7239C16.2835 14.6287 16.1645 14.4916 16.093 14.3303C16.0214 14.1688 16.0003 13.9903 16.0325 13.8173C16.0646 13.6441 16.1486 13.4842 16.2736 13.3578C16.3986 13.2313 16.5593 13.1439 16.7351 13.1067C16.911 13.0695 17.094 13.0842 17.2614 13.1488C17.4287 13.2134 17.5727 13.3252 17.6751 13.4698C17.7775 13.6144 17.8337 13.7855 17.8367 13.9614C17.8367 13.9664 17.8367 13.9713 17.8367 13.9763C17.8418 14.207 17.7529 14.4304 17.5896 14.597C17.4265 14.7637 17.2022 14.8602 16.9662 14.8652H16.9427" fill="#0A66C2"/>
</g>
</svg>
