<svg width="15" height="15" viewBox="0 0 15 15" fill="none" xmlns="http://www.w3.org/2000/svg">
<path d="M7.50063 1.25C10.9524 1.25 13.7506 4.04822 13.7506 7.5C13.7506 10.9517 10.9524 13.75 7.50063 13.75C6.35444 13.75 5.28032 13.4415 4.35679 12.9029L1.25322 13.75L2.0982 10.6447C1.55934 9.721 1.25061 8.64656 1.25061 7.5C1.25061 4.04822 4.04883 1.25 7.50063 1.25ZM5.2452 4.56771C5.16433 4.57339 5.08504 4.59314 5.01286 4.63007C4.9587 4.65778 4.90842 4.69782 4.82943 4.77241C4.75484 4.84284 4.71161 4.90436 4.66606 4.96366C4.43499 5.2645 4.31081 5.63378 4.31311 6.01311C4.31437 6.31975 4.39402 6.61775 4.51981 6.896C4.77489 7.46025 5.19555 8.05675 5.75121 8.60994C5.88469 8.74281 6.01546 8.87713 6.15646 9.00125C6.84612 9.6085 7.668 10.0464 8.55669 10.2801C8.55669 10.2801 8.90669 10.3339 8.91181 10.3342C9.02775 10.3404 9.1435 10.3321 9.25956 10.3261C9.44162 10.3167 9.61938 10.2675 9.78025 10.1818C9.88369 10.1267 9.93262 10.0994 10.0194 10.0446C10.0194 10.0446 10.0461 10.0266 10.0974 9.98837C10.1818 9.9255 10.2339 9.88125 10.3041 9.80838C10.3559 9.75463 10.4004 9.69112 10.4347 9.61956C10.4836 9.51756 10.5328 9.32288 10.5524 9.16119C10.5673 9.03769 10.5628 8.97019 10.5612 8.92838C10.5585 8.86113 10.5029 8.79194 10.4421 8.76256L10.0786 8.59919C10.0786 8.59919 9.53519 8.36269 9.20281 8.21106C9.16819 8.19525 9.13031 8.18794 9.09225 8.18563C9.00887 8.1805 8.91544 8.20225 8.856 8.26487C8.85287 8.26362 8.8115 8.29938 8.35931 8.84719C8.33437 8.877 8.27594 8.94181 8.17487 8.93575C8.15962 8.93469 8.14444 8.9325 8.12962 8.92863C8.08869 8.91781 8.04881 8.90356 8.00981 8.88706C7.9325 8.85425 7.90537 8.84181 7.85256 8.81906C7.49175 8.66144 7.16062 8.45056 6.86794 8.1925C6.78944 8.12337 6.71644 8.04894 6.64119 7.976C6.37856 7.72144 6.16356 7.45069 6.00361 7.18363C5.99487 7.16906 5.98142 7.148 5.96692 7.12444C5.94076 7.08188 5.91189 7.03125 5.90284 6.9965C5.87961 6.90456 5.94124 6.83069 5.94124 6.83069C5.94124 6.83069 6.09337 6.66437 6.16405 6.57394C6.23205 6.48688 6.29075 6.40175 6.32812 6.34106C6.40175 6.22271 6.42506 6.10039 6.38637 6.00602C6.21102 5.57853 6.03011 5.15335 5.84366 4.73059C5.80686 4.64716 5.69741 4.58654 5.59787 4.57504C5.56416 4.57115 5.53047 4.56724 5.49662 4.56501C5.41283 4.56093 5.32887 4.56183 5.2452 4.56771Z" fill="#124AFF"/>
</svg>
